<?xml version="1.0" encoding="UTF-8" standalone="no"?>
<svg
   data-name="Layer 2"
   viewBox="0 0 92 56"
   x="0px"
   y="0px"
   version="1.1"
   id="svg2"
   sodipodi:docname="noun-trending-up-3644003.svg"
   width="92"
   height="56"
   inkscape:version="1.3 (0e150ed, 2023-07-21)"
   xmlns:inkscape="http://www.inkscape.org/namespaces/inkscape"
   xmlns:sodipodi="http://sodipodi.sourceforge.net/DTD/sodipodi-0.dtd"
   xmlns="http://www.w3.org/2000/svg"
   xmlns:svg="http://www.w3.org/2000/svg">
  <defs
     id="defs2" />
  <sodipodi:namedview
     id="namedview2"
     pagecolor="#ffffff"
     bordercolor="#000000"
     borderopacity="0.25"
     inkscape:showpageshadow="2"
     inkscape:pageopacity="0.0"
     inkscape:pagecheckerboard="0"
     inkscape:deskcolor="#d1d1d1"
     inkscape:zoom="8.328"
     inkscape:cx="50.012008"
     inkscape:cy="62.5"
     inkscape:window-width="1392"
     inkscape:window-height="1212"
     inkscape:window-x="0"
     inkscape:window-y="25"
     inkscape:window-maximized="0"
     inkscape:current-layer="svg2" />
  <path
     d="m 91.167618,4.3861671 -5.34,19.9299999 a 2.71,2.71 0 0 1 -4.55,1.22 l -5.14,-5.15 -19.21,19.18 a 3,3 0 0 1 -4.3,0 l -15.35,-15.37 -30.7000003,30.63 a 3.13,3.13 0 0 1 -4.3,0.23 3,3 0 0 1 -0.1,-4.35 l 32.9000003,-32.9 a 3,3 0 0 1 4.3,0 l 15.37,15.37 h 0.05 l 17,-17 -5.14,-5.14 a 2.71,2.71 0 0 1 1.25,-4.6499999 l 19.94,-5.34 a 2.71,2.71 0 0 1 3.32,3.34 z"
     id="path1" />
</svg>
